<?xml version="1.0" encoding="UTF-8" standalone="no"?>
<!-- Created with Inkscape (http://www.inkscape.org/) -->

<svg
   xmlns:dc="http://purl.org/dc/elements/1.1/"
   xmlns:cc="http://creativecommons.org/ns#"
   xmlns:rdf="http://www.w3.org/1999/02/22-rdf-syntax-ns#"
   xmlns:svg="http://www.w3.org/2000/svg"
   xmlns="http://www.w3.org/2000/svg"
   xmlns:sodipodi="http://sodipodi.sourceforge.net/DTD/sodipodi-0.dtd"
   xmlns:inkscape="http://www.inkscape.org/namespaces/inkscape"
   width="100mm"
   height="100mm"
   viewBox="0 0 100 100"
   version="1.1"
   id="svg8"
   inkscape:version="0.92.4 (5da689c313, 2019-01-14)"
   sodipodi:docname="Settings.svg"
   inkscape:export-filename="D:\Projects\KwadSim\Textures\Settings.png"
   inkscape:export-xdpi="32.512001"
   inkscape:export-ydpi="32.512001">
  <defs
     id="defs2" />
  <sodipodi:namedview
     id="base"
     pagecolor="#ffffff"
     bordercolor="#666666"
     borderopacity="1.0"
     inkscape:pageopacity="0"
     inkscape:pageshadow="2"
     inkscape:zoom="0.98994949"
     inkscape:cx="213.74966"
     inkscape:cy="119.20147"
     inkscape:document-units="mm"
     inkscape:current-layer="g6537"
     showgrid="false"
     inkscape:pagecheckerboard="true"
     inkscape:window-width="1185"
     inkscape:window-height="1048"
     inkscape:window-x="-7"
     inkscape:window-y="0"
     inkscape:window-maximized="0"
     showguides="false" />
  <metadata
     id="metadata5">
    <rdf:RDF>
      <cc:Work
         rdf:about="">
        <dc:format>image/svg+xml</dc:format>
        <dc:type
           rdf:resource="http://purl.org/dc/dcmitype/StillImage" />
        <dc:title />
      </cc:Work>
    </rdf:RDF>
  </metadata>
  <g
     inkscape:label="Layer 1"
     inkscape:groupmode="layer"
     id="layer1"
     transform="translate(0,-197)">
    <g
       id="g5753"
       inkscape:label="Gear12"
       transform="matrix(3.3111231,0,0,3.3111231,50,247)"
       style="fill:#ffffff;fill-opacity:1;stroke:#000000;stroke-opacity:1">
      <g
         id="g6537"
         inkscape:label="Gear6"
         transform="matrix(6.0348384,0,0,6.0348384,1.0469102,0.55759048)">
        <g
           id="g3027"
           transform="matrix(0.00245015,0,0,-0.00245015,-2.055193,1.4757007)"
           style="fill:#ffffff;fill-opacity:1">
          <path
             style="fill:#ffffff;fill-opacity:1"
             inkscape:connector-curvature="0"
             id="path3029"
             d="m 1024,640 q 0,106 -75,181 -75,75 -181,75 -106,0 -181,-75 -75,-75 -75,-181 0,-106 75,-181 75,-75 181,-75 106,0 181,75 75,75 75,181 z m 512,109 V 527 q 0,-12 -8,-23 -8,-11 -20,-13 l -185,-28 q -19,-54 -39,-91 35,-50 107,-138 10,-12 10,-25 0,-13 -9,-23 -27,-37 -99,-108 -72,-71 -94,-71 -12,0 -26,9 l -138,108 q -44,-23 -91,-38 -16,-136 -29,-186 -7,-28 -36,-28 H 657 q -14,0 -24.5,8.5 Q 622,-111 621,-98 L 593,86 q -49,16 -90,37 L 362,16 Q 352,7 337,7 323,7 312,18 186,132 147,186 q -7,10 -7,23 0,12 8,23 15,21 51,66.5 36,45.5 54,70.5 -27,50 -41,99 L 29,495 Q 16,497 8,507.5 0,518 0,531 v 222 q 0,12 8,23 8,11 19,13 l 186,28 q 14,46 39,92 -40,57 -107,138 -10,12 -10,24 0,10 9,23 26,36 98.5,107.5 72.5,71.5 94.5,71.5 13,0 26,-10 l 138,-107 q 44,23 91,38 16,136 29,186 7,28 36,28 h 222 q 14,0 24.5,-8.5 Q 914,1391 915,1378 l 28,-184 q 49,-16 90,-37 l 142,107 q 9,9 24,9 13,0 25,-10 129,-119 165,-170 7,-8 7,-22 0,-12 -8,-23 -15,-21 -51,-66.5 -36,-45.5 -54,-70.5 26,-50 41,-98 l 183,-28 q 13,-2 21,-12.5 8,-10.5 8,-23.5 z" />
        </g>
      </g>
    </g>
  </g>
</svg>
