{
    "accessors" : [
        {
            "bufferView" : 0,
            "componentType" : 5121,
            "count" : 282,
            "max" : [
                48
            ],
            "min" : [
                0
            ],
            "type" : "SCALAR"
        },
        {
            "bufferView" : 1,
            "componentType" : 5126,
            "count" : 49,
            "max" : [
                0.1499999761581421,
                1.0003629922866821,
                0.15000000596046448
            ],
            "min" : [
                -0.15000002086162567,
                0.0003609955310821533,
                -0.15000000596046448
            ],
            "type" : "VEC3"
        },
        {
            "bufferView" : 2,
            "componentType" : 5126,
            "count" : 49,
            "max" : [
                0.8923001885414124,
                1.0,
                0.8923001885414124
            ],
            "min" : [
                -0.8923001885414124,
                -0.7537461519241333,
                -0.8923001885414124
            ],
            "type" : "VEC3"
        }
    ],
    "asset" : {
        "generator" : "Khronos Blender glTF 2.0 exporter",
        "version" : "2.0"
    },
    "bufferViews" : [
        {
            "buffer" : 0,
            "byteLength" : 282,
            "byteOffset" : 0,
            "target" : 34963
        },
        {
            "buffer" : 0,
            "byteLength" : 588,
            "byteOffset" : 284,
            "target" : 34962
        },
        {
            "buffer" : 0,
            "byteLength" : 588,
            "byteOffset" : 872,
            "target" : 34962
        }
    ],
    "buffers" : [
        {
            "byteLength" : 1460,
            "uri" : "arrow.bin"
        }
    ],
    "meshes" : [
        {
            "name" : "Cylinder",
            "primitives" : [
                {
                    "attributes" : {
                        "NORMAL" : 2,
                        "POSITION" : 1
                    },
                    "indices" : 0
                }
            ]
        }
    ],
    "nodes" : [
        {
            "mesh" : 0,
            "name" : "MoveGizmo"
        }
    ],
    "scene" : 0,
    "scenes" : [
        {
            "name" : "Scene",
            "nodes" : [
                0
            ]
        }
    ]
}
